<svg viewBox="0 0 1000 1000" 
  xmlns="http://www.w3.org/2000/svg"
  xmlns:xlink="http://www.w3.org/1999/xlink">
  <defs>
    <!-- Drop shadow filter for all boxes except the header -->
    <filter id="dropshadow" x="-20%" y="-20%" width="140%" height="140%">
      <feDropShadow dx="2" dy="2" stdDeviation="3" flood-color="gray"/>
    </filter>
  </defs>
  
  <!-- Outline the whole body (outer outline remains sharp) -->
  <rect 
    x="0" 
    y="0" 
    width="1000" 
    height="1000" 
    fill="none" 
    stroke="black"/>
  
  <!-- NAV COLUMN -->
  <rect 
    x="0" 
    y="0" 
    width="160" 
    height="1000" 
    fill="lightgray" 
    stroke="none"
    rx="10" ry="10"/>
  <text x="10" y="30" font-size="12">Nav Column</text>
  
  <!-- MAIN COLUMN CONTAINER -->
  <rect 
    x="160" 
    y="0" 
    width="840" 
    height="1000" 
    fill="white" 
    stroke="none"
    rx="10" ry="10"/>
  
  <!-- INNER CONTENT AREA (Equal insets: 60px each side) -->
  <!-- HEADER ROW 1-->
  <rect 
    x="220" 
    y="20" 
    width="720" 
    height="140" 
    fill="white" 
    stroke="none"
    rx="10" ry="10"/>
  <line x1="220" y1="160" x2="940" y2="160" stroke="black" stroke-width="1"/>
  <text x="230" y="50" font-size="12">Header Row (c-2-r-1)</text>
  
  <!-- ROW 2 -->
  <!-- Left Container (c-2-r-2-c-1) -->
  <rect 
    x="220" 
    y="170" 
    width="320" 
    height="300" 
    fill="powderblue" 
    stroke="black" 
    filter="url(#dropshadow)"
    rx="10" ry="10"/>
  <text x="230" y="190" font-size="12">Left Container Box w/Image (c-2-r-2-c-1-b)</text>
  
  <!-- Middle Container (c-2-r-2-c-2) -->
  <!-- Positioned at x=550 (220+320+10) -->
  <!-- Row 1: Status Box -->
  <rect 
    x="550" 
    y="170" 
    width="180" 
    height="93.33" 
    fill="white" 
    stroke="blue" 
    filter="url(#dropshadow)"
    rx="10" ry="10"/>
  <text x="560" y="200" font-size="10">Status Box (c2-ig-r1-b)</text>
  <!-- Row 2: Two side-by-side boxes -->
  <rect x="550" y="273.33" width="77" height="93.33" fill="white" stroke="blue" filter="url(#dropshadow)"
    rx="10" ry="10"/>
  <text x="555" y="303.33" font-size="10">Consumption (c2-ig-r2c1-b)</text>
  <rect x="637" y="273.33" width="93" height="93.33" fill="white" stroke="blue" filter="url(#dropshadow)"
    rx="10" ry="10"/>
  <text x="642" y="303.33" font-size="10">Total Charging (c2-ig-r2c2-b)</text>
  <!-- Row 3: Real Time Power Box -->
  <rect x="550" y="376.66" width="180" height="93.33" fill="white" stroke="blue" filter="url(#dropshadow)"
    rx="10" ry="10"/>
  <text x="560" y="406.66" font-size="10">Real Time Power (c2-ig-r3-b)</text>
  
  <!-- Right Container (c-2-r-2-c-3) -->
  <!-- Positioned at x=740 (550+180+10), width=200 -->
  <!-- Row 1: Range Selector & Filter -->
  <rect x="740" y="170" width="200" height="93.33" fill="white" stroke="red" filter="url(#dropshadow)"
    rx="10" ry="10"/>
  <text x="750" y="200" font-size="10">Range Selector &amp; Filter (c3-ig-r1)</text>
  
  <!-- Row 2: Icon Row (4 boxes) -->
  <rect x="740" y="273.33" width="42.5" height="93.33" fill="white" stroke="red" filter="url(#dropshadow)"
    rx="10" ry="10"/>
  <text x="745" y="303.33" font-size="10">Icon 1 (c3-ig-r2-c1-b) ☀️</text>
  
  <rect x="792.5" y="273.33" width="42.5" height="93.33" fill="white" stroke="red" filter="url(#dropshadow)"
    rx="10" ry="10"/>
  <text x="797.5" y="303.33" font-size="10">Icon 2 (c3-ig-r2-c2-b) ☀️</text>
  
  <rect x="845" y="273.33" width="42.5" height="93.33" fill="white" stroke="red" filter="url(#dropshadow)"
    rx="10" ry="10"/>
  <text x="850" y="303.33" font-size="10">Icon 3 (c3-ig-r2-c3-b) ⛅</text>
  
  <rect x="897.5" y="273.33" width="42.5" height="93.33" fill="white" stroke="red" filter="url(#dropshadow)"
    rx="10" ry="10"/>
  <text x="902.5" y="303.33" font-size="10">Icon 4 (c3-ig-r2-c4-b) 🌤️</text>
  
  <!-- Row 3: Min Max Total Use -->
  <rect x="740" y="376.66" width="200" height="93.33" fill="white" stroke="red" filter="url(#dropshadow)"
    rx="10" ry="10"/>
  <text x="750" y="406.66" font-size="10">Min Max Total Use (c3-ig-r3-b)</text>
  
  <!-- ROW 3 of Main Column -->
  <!-- Graph Box (c-2-r-3-c-1) with linked external SVG -->
  <!-- GRAPH_BOX_START -->
  <!-- Optional background: a rectangle drawn with the same dimensions -->
  <rect x="220" y="490" width="500" height="440" fill="lavender" stroke="black" filter="url(#dropshadow)"
    rx="10" ry="10"/>
  <!-- GRAPH_BOX_CONTENT_START -->
<rect x="220" y="490" width="500" height="440" fill="lavender" stroke="black" filter="url(#dropshadow)"/>
<g transform="translate(220,575.6716417910447) scale(0.746268656716418)">
<line x1="65" y1="10" x2="665" y2="10" style="stroke: grey" />
            <line x1="65" y1="60" x2="665" y2="60" style="stroke: grey" />
            <line x1="65" y1="110" x2="665" y2="110" style="stroke: grey" />
            <line x1="65" y1="160" x2="665" y2="160" style="stroke: grey" />
            <line x1="65" y1="210" x2="665" y2="210" style="stroke: grey" />
            <line x1="65" y1="260" x2="665" y2="260" style="stroke: grey" />
            <line x1="65" y1="310" x2="665" y2="310" style="stroke: grey" />
            <line
              x1="400"
              y1="310"
              x2="400"
              y2="5"
              style="stroke: grey; stroke-dasharray: 7"
            />
            <path
              d="M65,180 C90,140 115,220 140,200 S190,250 215,210 S290,230 315,170 S390,100 415,120
                    S490,210 515,190 S590,130 615,180 S665,150 665,150"
              stroke="green"
              fill="none"
              stroke-width="2"
              stroke-linecap="round"
            />
            <path
              d="M65,140 C90,170 115,130 140,110 S190,190 215,150 S290,170 315,140 S390,150 415,160
                    S490,180 515,140 S590,160 615,170 S665,140 665,140"
              stroke="red"
              fill="none"
              stroke-width="2"
              stroke-linecap="round"
            />

            <circle
              r="6"
              cx="400"
              cy="112"
              fill="transparent"
              stroke="green"
              stroke-width="3"
              stroke-dasharray="1"
            />
            <circle
              r="6"
              cx="400"
              cy="152"
              fill="transparent"
              stroke="red"
              stroke-width="3"
              stroke-dasharray="1"
            />
            <g>
              <text x="80" y="340">Jan</text>
              <text x="130" y="340">Feb</text>
              <text x="180" y="340">Mar</text>
              <text x="230" y="340">Apr</text>
              <text x="280" y="340">May</text>
              <text x="330" y="340">Jun</text>
              <text x="380" y="340">Jul</text>
              <text x="430" y="340">Aug</text>
              <text x="480" y="340">Sept</text>
              <text x="530" y="340">Oct</text>
              <text x="580" y="340">Nov</text>
              <text x="630" y="340">Dec</text>
            </g>
            <g>
              <text x="15" y="15">300</text>
              <text x="15" y="65">250</text>
              <text x="15" y="115">200</text>
              <text x="15" y="165">150</text>
              <text x="15" y="215">100</text>
              <text x="15" y="265">50</text>
              <text x="15" y="315">0</text>
            </g>
</g>
<!-- GRAPH_BOX_CONTENT_END -->
  <!-- Optional label text -->
  <text x="230" y="520" font-size="12">Graph Box (c-2-r-3-c-1-b)</text>  
  <!-- GRAPH_BOX_END -->
  
  <!-- Right Column of Row 3 -->
  <rect x="740" y="490" width="200" height="180" fill="mistyrose" stroke="black" filter="url(#dropshadow)"
    rx="10" ry="10"/>
  <text x="750" y="520" font-size="12">Current State (c-2-r-3-c-2-r-1-b)</text>
  <rect x="740" y="690" width="200" height="240" fill="lavender" stroke="black" filter="url(#dropshadow)"
    rx="10" ry="10"/>
  <text x="750" y="720" font-size="12">Energy Consumption (c-2-r-3-c-2-r-2-b)</text>
</svg>
