<svg viewBox="0 0 670 360" xmlns="http://www.w3.org/2000/svg">
            <line x1="65" y1="10" x2="665" y2="10" style="stroke: grey" />
            <line x1="65" y1="60" x2="665" y2="60" style="stroke: grey" />
            <line x1="65" y1="110" x2="665" y2="110" style="stroke: grey" />
            <line x1="65" y1="160" x2="665" y2="160" style="stroke: grey" />
            <line x1="65" y1="210" x2="665" y2="210" style="stroke: grey" />
            <line x1="65" y1="260" x2="665" y2="260" style="stroke: grey" />
            <line x1="65" y1="310" x2="665" y2="310" style="stroke: grey" />
            <line
              x1="400"
              y1="310"
              x2="400"
              y2="5"
              style="stroke: grey; stroke-dasharray: 7"
            />
            <path
              d="M65,180 C90,140 115,220 140,200 S190,250 215,210 S290,230 315,170 S390,100 415,120
                    S490,210 515,190 S590,130 615,180 S665,150 665,150"
              stroke="green"
              fill="none"
              stroke-width="2"
              stroke-linecap="round"
            />
            <path
              d="M65,140 C90,170 115,130 140,110 S190,190 215,150 S290,170 315,140 S390,150 415,160
                    S490,180 515,140 S590,160 615,170 S665,140 665,140"
              stroke="red"
              fill="none"
              stroke-width="2"
              stroke-linecap="round"
            />

            <circle
              r="6"
              cx="400"
              cy="112"
              fill="transparent"
              stroke="green"
              stroke-width="3"
              stroke-dasharray="1"
            />
            <circle
              r="6"
              cx="400"
              cy="152"
              fill="transparent"
              stroke="red"
              stroke-width="3"
              stroke-dasharray="1"
            />
            <g>
              <text x="80" y="340">Jan</text>
              <text x="130" y="340">Feb</text>
              <text x="180" y="340">Mar</text>
              <text x="230" y="340">Apr</text>
              <text x="280" y="340">May</text>
              <text x="330" y="340">Jun</text>
              <text x="380" y="340">Jul</text>
              <text x="430" y="340">Aug</text>
              <text x="480" y="340">Sept</text>
              <text x="530" y="340">Oct</text>
              <text x="580" y="340">Nov</text>
              <text x="630" y="340">Dec</text>
            </g>
            <g>
              <text x="15" y="15">300</text>
              <text x="15" y="65">250</text>
              <text x="15" y="115">200</text>
              <text x="15" y="165">150</text>
              <text x="15" y="215">100</text>
              <text x="15" y="265">50</text>
              <text x="15" y="315">0</text>
            </g>
          </svg>